<svg width="56" height="56" viewBox="0 0 56 56" fill="none" xmlns="http://www.w3.org/2000/svg">
<path d="M25.6667 39.6666H30.3334V30.3333H39.6667V25.6666H30.3334V16.3333H25.6667V25.6666H16.3334V30.3333H25.6667V39.6666ZM28 51.3333C24.7722 51.3333 21.7389 50.7204 18.9 49.4946C16.0611 48.2704 13.5917 46.6083 11.4917 44.5083C9.39169 42.4083 7.72958 39.9389 6.50535 37.1C5.27958 34.2611 4.66669 31.2277 4.66669 28C4.66669 24.7722 5.27958 21.7388 6.50535 18.9C7.72958 16.0611 9.39169 13.5916 11.4917 11.4916C13.5917 9.39163 16.0611 7.72874 18.9 6.50296C21.7389 5.27874 24.7722 4.66663 28 4.66663C31.2278 4.66663 34.2611 5.27874 37.1 6.50296C39.9389 7.72874 42.4084 9.39163 44.5084 11.4916C46.6084 13.5916 48.2705 16.0611 49.4947 18.9C50.7205 21.7388 51.3334 24.7722 51.3334 28C51.3334 31.2277 50.7205 34.2611 49.4947 37.1C48.2705 39.9389 46.6084 42.4083 44.5084 44.5083C42.4084 46.6083 39.9389 48.2704 37.1 49.4946C34.2611 50.7204 31.2278 51.3333 28 51.3333Z" fill="#182BD1"/>
</svg>
